<?xml version="1.0" standalone="yes"?>
<svg xmlns="http://www.w3.org/2000/svg" width="1200" height="800">
<path style="fill:#010101; stroke:none;" d="M0 0L0 800L1200 800L1200 0L0 0z"/>
<path style="fill:#f58801; stroke:none;" d="M461 113C456.983 113.351 451.893 116.125 448 114.827C436.092 110.858 423.008 96.7349 413 89.1157C407.691 85.0735 402.146 80.5503 395 81.3434C384.884 82.4661 381.555 91.2753 380.081 100C378.112 111.656 376.285 123.331 374.41 135C373.542 140.406 373.458 146.651 368.891 150.366C360.954 156.821 354.868 152.065 347 148.258C336.08 142.975 315.329 128.393 303 131.947C293.059 134.813 291.003 144.007 291 153C290.994 167.422 296.035 187.1 292.227 201C289.369 211.432 278.922 210.344 271 208.373C258.142 205.175 230.88 193.18 219.043 201.804C204.62 212.312 218.783 244.07 221.79 258C222.758 262.485 225.504 268.576 223.477 273C215.056 291.378 178.986 278.456 163 280.175C153.347 281.213 146.629 290.386 148.684 300C150.05 306.397 156.906 327.896 163.343 330.307C167.369 331.815 174.78 329.785 179 329.285C189.949 327.989 201.023 327.232 212 326.17C251.319 322.365 290.678 318.975 330 315.17C439.616 304.562 549.384 295.438 659 284.83C715.121 279.399 771.69 271.759 828 269C862.194 267.324 896.999 263.31 931 259.286C940.389 258.174 958.87 260.595 966.686 255.012C969.569 252.952 969.844 248.181 970.626 245C972.899 235.744 977.141 224.558 976.87 215C976.546 203.542 966.893 196.934 956 199.008C941.113 201.841 908.681 218.93 898.603 203C895.967 198.833 896.992 192.717 897 188C897.022 174.101 904.28 145.804 892.892 135.225C885.937 128.763 878.509 131.82 871 135.14C858.896 140.49 834.441 158.892 822.019 151.264C815.866 147.485 815.99 140.512 814.92 134C812.823 121.25 813.842 92.0013 801.957 84.4822C785.586 74.1259 765.191 97.4834 753 106.627C747.322 110.885 742.528 116.281 735.004 114.131C727.505 111.988 726.461 104.588 724.053 98C719.579 85.7562 716.015 59.4056 703.91 52.5725C686.01 42.4686 667.038 74.098 657.576 85C654.732 88.2762 650.524 94.7626 645.911 95.3958C636.541 96.6816 632.826 88.7107 628.8 82C621.736 70.2262 610.944 40.5355 595 40.1365C586.103 39.9139 581.804 47.3272 577.8 54L561 82C558.772 85.7137 556.499 91.6547 552.671 93.9722C545.051 98.586 538.456 92.1343 533.831 87C524.401 76.5307 514.111 60.2527 501.999 53.0093C495.222 48.9561 485.688 50.6986 481.108 57.0934C475.964 64.2758 473.823 74.7061 470.997 83C467.677 92.7437 462.527 102.807 461 113z"/>
<path style="fill:#fdfdfd; stroke:none;" d="M588 41L589 42L588 41M707 55L708 56L707 55M481 56L482 57L481 56M665 76L666 77L665 76M786 82L787 83L786 82M657 85L658 86L657 85M803 85L804 86L803 85M410 87L411 88L410 87M469 87L470 88L469 87M383 88L384 89L383 88M414 90L415 91L414 90M644 95L645 96L644 95M724 99L725 100L724 99M739 115L740 116L739 115M741 115L742 116L741 115M374 134L375 135L374 134M870 135L871 136L870 135M897 142L898 143L897 142M834 152L835 153L834 152M825 153L826 154L825 153M359 154L360 155L359 154M362 154L363 155L362 154z"/>
<path style="fill:#f05c01; stroke:none;" d="M897.333 179.667L897.667 180.333L897.333 179.667M962 198L963 199L962 198z"/>
<path style="fill:#fdfdfd; stroke:none;" d="M233 199L234 200L233 199z"/>
<path style="fill:#f05c01; stroke:none;" d="M966 199L967 200L966 199z"/>
<path style="fill:#fdfdfd; stroke:none;" d="M219 201L220 202L219 201z"/>
<path style="fill:#f05c01; stroke:none;" d="M971 202L972 203L971 202M926 206L927 207L926 206M922 207L923 208L922 207M918 208L919 209L918 208M914 209L915 210L914 209M905 210L906 211L905 210M910 210L911 211L910 210M216 234L217 235L216 234M972 236L973 237L972 236M218 243L219 244L218 243M970 245L971 246L970 245M219 247L220 248L219 247M969 249L970 250L969 249M967 255C943.41 262.986 912.792 260.771 888 263.17C830.685 268.716 773.311 273.624 716 279.17C596.365 290.747 476.634 301.253 357 312.83C292.102 319.111 226.686 322.825 162 331L164 333C163.321 344.691 176.359 352.702 164.61 363.566C161.271 366.654 155.293 366.802 151 367.576C140.686 369.435 130.339 371.207 120 372.92C112.395 374.179 104.323 375.497 101.653 384C96.4627 400.526 115.069 417.758 123.706 430C126.178 433.504 133.007 440.441 132.269 445C130.954 453.124 116.514 463.171 111.184 468.961C95.3501 486.16 79.3669 503.289 63.0147 519.999C56.5064 526.65 44.7704 535.793 42.5332 545C37.237 566.796 63.8573 588.512 77.0147 602C115.367 641.316 154.945 679.406 194 717.996C204.138 728.014 213.371 738.567 223.09 749C227.588 753.829 232.494 760.174 239 762C238.201 743.667 227.332 724.578 218.421 709C198.55 674.26 173.04 643.226 153.694 608C146.912 595.649 139.911 583.166 134.811 570C133.029 565.399 129.861 559.014 131.379 554.001C133.019 548.582 139.128 544.792 143 541C148.679 557.677 161.908 571.314 172.576 585C191.828 609.7 211.609 634.231 231.999 658C241.226 668.756 250.03 688.935 263 695C259.502 669.025 244.179 645.23 231.427 623C219.721 602.592 209.951 581.272 200 560C209.992 565.257 219.725 570.974 230 575.691C235.36 578.152 242.135 579.771 246.675 583.638C254.064 589.932 259.369 600.4 265.449 608C277.916 623.583 291.386 638.303 306 651.911C318.371 663.43 332.774 673.617 348 680.971C354.973 684.339 364.752 685.082 370.91 689.564C378.798 695.304 384.62 705.756 391.17 713C405.819 729.203 421.732 744.359 440 756.484C478.77 782.216 525.237 783.095 557.13 746C563.419 738.686 568.911 730.759 573 722L504 701.742L465 679.656L443 664L443 663L587 650C561.201 608.711 508.792 569.317 458 574.17C435.079 576.36 414.019 587.018 396 600.887C385.122 609.261 369.689 621.244 364 634C352.576 628.561 342.939 620.915 334 612C343.941 613.339 360.181 621.038 369.91 618.226C373.885 617.077 376.556 611.904 379.171 609C385.275 602.218 391.99 595.909 399 590.081C423.311 569.867 453.963 556.423 486 561.439C517.3 566.34 543.213 586.213 565 608C578.234 621.234 588.285 642.261 609.985 636.682C614.9 635.419 617.821 629.691 620.805 626C627.477 617.745 634.699 609.664 642.039 602C663.775 579.306 692.078 560.22 724 557.17C751.777 554.516 780.43 569.335 800 588.039C806.365 594.122 812.801 600.179 818.386 607C821.052 610.256 823.92 615.897 828.09 617.357C831.618 618.593 836.459 616.683 840 616.081C851.02 614.207 862.178 611.8 873 609L873 610C860.115 616.417 844.426 632.344 828.093 628.933C821.654 627.588 814.88 612.915 810.725 608C798.512 593.55 783.598 580.017 766 572.428C720.228 552.692 679.036 577.952 647 610C636.038 620.966 619.627 636.371 614 651C636.334 645.833 656.758 641.498 680 643.089C705.916 644.864 730.469 652.562 756 656C717.467 700.529 671.517 726 612 726C617.134 735.814 629.631 743.504 639 748.988C673.203 769.011 714.072 768.64 750 753.576C776.75 742.359 799.898 724.567 821 704.911C829.663 696.84 836.817 686.685 846 679.275C853.064 673.574 863.029 671.002 871 666.691C888.063 657.463 904.498 647.302 920 635.626C935.547 623.916 949.938 610.808 962.573 596C969.306 588.108 974.515 577.234 982.184 570.39C994.314 559.566 1011.86 553.125 1025 543C1017.56 578.59 996.825 612.252 981.919 645C975.313 659.514 964.251 680.682 966 697C973.317 690.953 977.6 681.022 982.45 673C987.882 664.013 994.438 655.675 1000.34 647C1022.7 614.171 1052.66 580.827 1068 544C1085.75 556.802 1070.1 586.853 1064.33 604C1057.5 624.292 1049.63 644.538 1040.69 664C1026.24 695.484 1009 727.418 1009 763C1015.3 759.93 1018.88 752.831 1022.4 747C1028.73 736.51 1035 725.964 1042.14 716C1072.7 673.343 1103.22 630.667 1132.33 587C1142.1 572.35 1164.4 547.194 1156.52 528.001C1152.83 519.031 1140.57 513.044 1133 507.576C1115.24 494.75 1097.55 481.734 1080 468.626C1073.08 463.46 1060.39 457.542 1057.42 448.996C1055.2 442.61 1061.38 436.925 1064.67 432C1073.1 419.38 1095.42 398.346 1087 382.015C1080.46 369.334 1051.6 369.696 1039 367.424C1033.11 366.363 1025.88 366.619 1022.4 360.945C1017.79 353.409 1021.73 347.272 1024.85 340C1030.19 327.548 1046.06 303.478 1039.93 290C1035.9 281.168 1028.48 281 1020 281C1008.95 281 998.023 282 987 282C982.755 282 976.92 283.003 973.039 280.972C960.328 274.322 969.906 264.479 967 255M221 256L222 257L221 256z"/>
<path style="fill:#f58801; stroke:none;" d="M967 258L968 259L967 258z"/>
<path style="fill:#f05c01; stroke:none;" d="M224 269L225 270L224 269z"/>
<path style="fill:#f58801; stroke:none;" d="M965 273L966 274L965 273M966 274L967 275L966 274z"/>
<path style="fill:#f05c01; stroke:none;" d="M221 276L222 277L221 276z"/>
<path style="fill:#f58801; stroke:none;" d="M969 278L970 279L969 278M970 279L971 280L970 279M1031 281L1032 282L1031 281z"/>
<path style="fill:#f05c01; stroke:none;" d="M155 282L156 283L155 282z"/>
<path style="fill:#f58801; stroke:none;" d="M1038 287L1039 288L1038 287z"/>
<path style="fill:#f05c01; stroke:none;" d="M150 288L151 289L150 288M149 290L150 291L149 290z"/>
<path style="fill:#f58801; stroke:none;" d="M1041 295L1042 296L1041 295z"/>
<path style="fill:#f05c01; stroke:none;" d="M148 299L149 300L148 299z"/>
<path style="fill:#f58801; stroke:none;" d="M1040 302L1041 303L1040 302z"/>
<path style="fill:#f05c01; stroke:none;" d="M150 305L151 306L150 305z"/>
<path style="fill:#f58801; stroke:none;" d="M1037 309L1038 310L1037 309z"/>
<path style="fill:#f05c01; stroke:none;" d="M153 312L154 313L153 312M154 314L155 315L154 314M157 321L158 322L157 321M158 323L159 324L158 323M159.333 324.667L159.667 325.333L159.333 324.667M160 328L161 329L160 328M161.333 329.667L161.667 330.333L161.333 329.667z"/>
<path style="fill:#f58801; stroke:none;" d="M163 333L164 334L163 333M169 348L170 349L169 348M1019 355L1020 356L1019 355M151 367L152 368L151 367M1061 371L1062 372L1061 371M1080 375L1081 376L1080 375z"/>
<path style="fill:#616060; stroke:none;" d="M718 396L718 397L727 397L718 396M511 397L511 398L514 398L511 397z"/>
<path style="fill:#010101; stroke:none;" d="M496 400L496 402C522.373 403.371 525.799 441.555 514.452 458.999C504.948 473.611 489.264 474.201 478.329 460.999C475.179 457.197 473.033 452.759 471.757 448C469.834 440.83 470.083 434.255 471 427C458.665 445.337 454.076 475.5 462.873 496C477.641 530.413 519.874 544.476 552 526.688C591.112 505.032 589.37 436.107 557 409.329C538.948 394.395 517.336 397.289 496 400z"/>
<path style="fill:#616060; stroke:none;" d="M525 397L525 398L528 398L525 397M712 397L713 398L712 397z"/>
<path style="fill:#010101; stroke:none;" d="M703 400L703 401C728.372 406.307 735.443 441.354 719.671 459.985C706.332 475.743 688.147 467.081 681.464 450C679.288 444.439 678.934 438.903 679.004 433C679.102 424.733 682.229 418.169 686 411C673.885 416.65 668.506 433.115 664.671 445C650.046 490.316 683.845 545.683 735 528.645C749.437 523.837 765.262 515.631 772.956 502C790.359 471.171 774.643 416.073 743 401.12C729.814 394.89 716.613 396.879 703 400z"/>
<path style="fill:#616060; stroke:none;" d="M732 397L733 398L732 397M504.667 398.333L505.333 398.667L504.667 398.333M533 398L534 399L533 398M708 398L709 399L708 398M736 398L737 399L736 398M499 399L500 400L499 399M537 399L538 400L537 399M705 399L706 400L705 399M739 399L740 400L739 399M495.333 400.667L495.667 401.333L495.333 400.667M540 400L541 401L540 400M700 401L700 402L706 402L700 401M741 400L742 401L741 400M491 401L487 403L487 404L492 402L491 401z"/>
<path style="fill:#010101; stroke:none;" d="M492 401L492 402L495 402L492 401z"/>
<path style="fill:#616060; stroke:none;" d="M543 401L544 402L543 401z"/>
<path style="fill:#f58801; stroke:none;" d="M491 402L492 403L491 402z"/>
<path style="fill:#fdfdfd; stroke:none;" d="M492 402.468C470.088 406.646 467.464 437.129 474.069 454C477.746 463.39 487.159 472.362 498 470.671C520.327 467.188 524.381 436.177 517.124 419C512.831 408.837 503.759 400.227 492 402.468z"/>
<path style="fill:#616060; stroke:none;" d="M500.667 402.333L501.333 402.667L500.667 402.333z"/>
<path style="fill:#f58801; stroke:none;" d="M697 402L698 403L697 402z"/>
<path style="fill:#fdfdfd; stroke:none;" d="M698 402.638C678.368 408.311 675.457 437.268 682.796 453C687.573 463.239 697.278 471.013 709 467.481C728.525 461.598 730.99 432.729 723.676 417C719.13 407.225 709.32 399.367 698 402.638z"/>
<path style="fill:#616060; stroke:none;" d="M708.667 402.333L709.333 402.667L708.667 402.333M745 402L746 403L745 402z"/>
<path style="fill:#010101; stroke:none;" d="M486 403L487 404L486 403z"/>
<path style="fill:#616060; stroke:none;" d="M503 403L504 404L503 403z"/>
<path style="fill:#f58801; stroke:none;" d="M695 403L696 404L695 403z"/>
<path style="fill:#616060; stroke:none;" d="M711 403L712 404L711 403M747 403L748 404L747 403M483 404L483 405L486 405L486 404L483 404z"/>
<path style="fill:#010101; stroke:none;" d="M484 404L485 405L484 404z"/>
<path style="fill:#616060; stroke:none;" d="M505 404L506 405L505 404M549 404L550 405L549 404z"/>
<path style="fill:#f58801; stroke:none;" d="M693 404L694 405L693 404z"/>
<path style="fill:#616060; stroke:none;" d="M713 404L714 405L713 404z"/>
<path style="fill:#010101; stroke:none;" d="M483 405L484 406L483 405z"/>
<path style="fill:#616060; stroke:none;" d="M551 405L552 406L551 405z"/>
<path style="fill:#f58801; stroke:none;" d="M691 405L692 406L691 405z"/>
<path style="fill:#616060; stroke:none;" d="M714 405L715 406L714 405M750 405L751 406L750 405M482 406L483 407L482 406M508 406L509 407L508 406z"/>
<path style="fill:#f58801; stroke:none;" d="M690 406L691 407L690 406z"/>
<path style="fill:#616060; stroke:none;" d="M481 407L482 408L481 407M509 407L510 408L509 407M554 407L555 408L554 407z"/>
<path style="fill:#f58801; stroke:none;" d="M689 407L690 408L689 407z"/>
<path style="fill:#616060; stroke:none;" d="M753 407L754 408L753 407z"/>
<path style="fill:#f58801; stroke:none;" d="M480 408L481 409L480 408z"/>
<path style="fill:#616060; stroke:none;" d="M510 408L511 409L510 408M688 408L689 409L688 408z"/>
<path style="fill:#f58801; stroke:none;" d="M479 409L480 410L479 409z"/>
<path style="fill:#616060; stroke:none;" d="M511 409L512 410L511 409M687 409L688 410L687 409z"/>
<path style="fill:#f58801; stroke:none;" d="M478 410L479 411L478 410z"/>
<path style="fill:#616060; stroke:none;" d="M512 410L513 411L512 410M685.667 410.333L686.333 410.667L685.667 410.333M720 411L721 412L720 411z"/>
<path style="fill:#f58801; stroke:none;" d="M477 412L478 413L477 412z"/>
<path style="fill:#616060; stroke:none;" d="M685 412L686 413L685 412M721 412L722 413L721 412M759 412L760 413L759 412z"/>
<path style="fill:#f58801; stroke:none;" d="M476 413L477 414L476 413z"/>
<path style="fill:#616060; stroke:none;" d="M514 413L515 414L514 413M681 413L682 414L681 413M684 413L685 414L684 413M760 413L761 414L760 413M680 414L681 415L680 414M722 414L723 415L722 414M761 414L762 415L761 414z"/>
<path style="fill:#f58801; stroke:none;" d="M475 415L476 416L475 415z"/>
<path style="fill:#616060; stroke:none;" d="M515 415L516 416L515 415M679 415L680 416L679 415M683 415L684 416L683 415M762 415L763 416L762 415z"/>
<path style="fill:#f58801; stroke:none;" d="M114 416L115 417L114 416z"/>
<path style="fill:#616060; stroke:none;" d="M678 416L679 417L678 416M723 416L724 417L723 416M763 416L764 417L763 416z"/>
<path style="fill:#f58801; stroke:none;" d="M474 417L475 418L474 417M516 417L517 418L516 417z"/>
<path style="fill:#616060; stroke:none;" d="M677 417L678 418L677 417M682 417L683 418L682 417M565 418L566 419L565 418M724 418L725 419L724 418z"/>
<path style="fill:#f58801; stroke:none;" d="M1073 418L1074 419L1073 418M473 419L474 420L473 419z"/>
<path style="fill:#616060; stroke:none;" d="M517 419L518 420L517 419M681.333 419.667L681.667 420.333L681.333 419.667M725.333 420.667L725.667 421.333L725.333 420.667M518.333 421.667L518.667 422.333L518.333 421.667z"/>
<path style="fill:#f58801; stroke:none;" d="M472 422L473 423L472 422z"/>
<path style="fill:#616060; stroke:none;" d="M568 422L569 423L568 422M674 422L675 423L674 422M680.333 422.667L680.667 423.333L680.333 422.667M519.333 424.667L519.667 425.333L519.333 424.667M569 424L570 425L569 424M673 424L674 425L673 424M726 424L727 425L726 424M767 424L768 425L767 424M471.333 425.667L471.667 426.333L471.333 425.667z"/>
<path style="fill:#f58801; stroke:none;" d="M726 425L727 426L726 425M121 426L122 427L121 426M519 426L520 427L519 426z"/>
<path style="fill:#616060; stroke:none;" d="M679 426L679 429L680 429L679 426M768 426L769 427L768 426z"/>
<path style="fill:#f58801; stroke:none;" d="M471 427L472 428L471 427z"/>
<path style="fill:#616060; stroke:none;" d="M727 428L727 432L728 432L727 428M769 428L770 429L769 428M469 429L470 430L469 429M520 429L520 433L521 433L520 429z"/>
<path style="fill:#f58801; stroke:none;" d="M679 429L680 430L679 429z"/>
<path style="fill:#616060; stroke:none;" d="M470 430L470 442L471 442L470 430M468 431L469 432L468 431M770 431L771 432L770 431M669 432L670 433L669 432z"/>
<path style="fill:#f58801; stroke:none;" d="M727 432L727 435L728 435L727 432M126 433L127 434L126 433z"/>
<path style="fill:#616060; stroke:none;" d="M467 433L468 434L467 433z"/>
<path style="fill:#f58801; stroke:none;" d="M520.333 433.667L520.667 434.333L520.333 433.667z"/>
<path style="fill:#616060; stroke:none;" d="M574 434L575 435L574 434M668 434L669 435L668 434z"/>
<path style="fill:#f58801; stroke:none;" d="M727.333 436.667L727.667 437.333L727.333 436.667z"/>
<path style="fill:#616060; stroke:none;" d="M772 436L773 437L772 436M465 438L466 439L465 438z"/>
<path style="fill:#f58801; stroke:none;" d="M520.333 438.667L520.667 439.333L520.333 438.667z"/>
<path style="fill:#616060; stroke:none;" d="M727 438L727 442L728 442L727 438M576 439L577 440L576 439M666 439L667 440L666 439M773 439L774 440L773 439M520 440L520 444L521 444L520 440z"/>
<path style="fill:#f58801; stroke:none;" d="M1058 440L1059 441L1058 440z"/>
<path style="fill:#616060; stroke:none;" d="M464 441L465 442L464 441z"/>
<path style="fill:#f58801; stroke:none;" d="M679 441L680 442L679 441z"/>
<path style="fill:#616060; stroke:none;" d="M577 442L578 443L577 442M665 442L666 443L665 442M679.333 442.667L679.667 443.333L679.333 442.667M463 444L464 445L463 444z"/>
<path style="fill:#f58801; stroke:none;" d="M471 445L472 446L471 445z"/>
<path style="fill:#616060; stroke:none;" d="M664 445L665 446L664 445M726.333 445.667L726.667 446.333L726.333 445.667M471.333 446.667L471.667 447.333L471.333 446.667z"/>
<path style="fill:#f58801; stroke:none;" d="M519 446L520 447L519 446z"/>
<path style="fill:#616060; stroke:none;" d="M578 446L579 447L578 446z"/>
<path style="fill:#f58801; stroke:none;" d="M680 446L681 447L680 446z"/>
<path style="fill:#616060; stroke:none;" d="M775 446L776 447L775 446M462 447L463 448L462 447M519 447L520 448L519 447M680 447L681 448L680 447M663 448L664 449L663 448z"/>
<path style="fill:#f58801; stroke:none;" d="M472 449L473 450L472 449z"/>
<path style="fill:#616060; stroke:none;" d="M725 449L726 450L725 449M461 450L462 451L461 450M472 450L473 451L472 450M518.333 450.667L518.667 451.333L518.333 450.667M681 450L682 451L681 450M776 450L777 451L776 450M579.333 451.667L579.667 452.333L579.333 451.667z"/>
<path style="fill:#f58801; stroke:none;" d="M724 451L725 452L724 451M473 452L474 453L473 452z"/>
<path style="fill:#616060; stroke:none;" d="M682 452L683 453L682 452M724 452L725 453L724 452M473 453L474 454L473 453M517 453L518 454L517 453M662 453L663 454L662 453z"/>
<path style="fill:#f58801; stroke:none;" d="M125 454L126 455L125 454z"/>
<path style="fill:#616060; stroke:none;" d="M460 454L461 455L460 454M683 454L684 455L683 454M723 454L724 455L723 454M777.333 454.667L777.667 455.333L777.333 454.667M474 455L475 456L474 455M516 455L517 456L516 455M684 456L685 457L684 456M722 456L723 457L722 456M475 457L476 458L475 457M515 457L516 458L515 457M721 457L722 458L721 457M661.333 458.667L661.667 459.333L661.333 458.667M685 458L686 459L685 458M459.333 459.667L459.667 460.333L459.333 459.667M514 459L515 460L514 459M686 459L687 460L686 459M720 459L721 460L720 459M477 460L478 461L477 460z"/>
<path style="fill:#f58801; stroke:none;" d="M513 460L514 461L513 460z"/>
<path style="fill:#616060; stroke:none;" d="M580 460L580 464L581 464L580 460z"/>
<path style="fill:#f58801; stroke:none;" d="M687 460L688 461L687 460z"/>
<path style="fill:#616060; stroke:none;" d="M719 460L720 461L719 460M778 460L779 461L778 460z"/>
<path style="fill:#f58801; stroke:none;" d="M1068 460L1069 461L1068 460M478 461L479 462L478 461z"/>
<path style="fill:#616060; stroke:none;" d="M718 461L719 462L718 461M717 462L718 463L717 462M511 463L512 464L511 463z"/>
<path style="fill:#f58801; stroke:none;" d="M690 463L691 464L690 463z"/>
<path style="fill:#616060; stroke:none;" d="M716 463L717 464L716 463M510 464L511 465L510 464M691 464L692 465L691 464M715 464L716 465L715 464M509 465L510 466L509 465M692 465L693 466L692 465z"/>
<path style="fill:#f58801; stroke:none;" d="M713 465L714 466L713 465z"/>
<path style="fill:#616060; stroke:none;" d="M458 466L458 471L459 471L458 466M694 466L695 467L694 466M712 466L713 467L712 466M484 467L485 468L484 467M506 467L507 468L506 467M696 467L697 468L696 467z"/>
<path style="fill:#f58801; stroke:none;" d="M709 467L710 468L709 467z"/>
<path style="fill:#616060; stroke:none;" d="M710 467L711 468L710 467z"/>
<path style="fill:#f58801; stroke:none;" d="M486 468L487 469L486 468z"/>
<path style="fill:#616060; stroke:none;" d="M505 468L506 469L505 468M699.667 468.333L700.333 468.667L699.667 468.333z"/>
<path style="fill:#f58801; stroke:none;" d="M701 468L702 469L701 468M704 468L705 469L704 468z"/>
<path style="fill:#616060; stroke:none;" d="M705 468L705 469L708 469L705 468M487.667 469.333L488.333 469.667L487.667 469.333z"/>
<path style="fill:#f58801; stroke:none;" d="M502 469L503 470L502 469z"/>
<path style="fill:#616060; stroke:none;" d="M503 469L504 470L503 469M779 469L779 479L780 479L779 469M490.667 470.333L491.333 470.667L490.667 470.333M499.667 470.333L500.333 470.667L499.667 470.333z"/>
<path style="fill:#f58801; stroke:none;" d="M1083 471L1084 472L1083 471M108 472L109 473L108 472z"/>
<path style="fill:#616060; stroke:none;" d="M580 473L580 477L581 477L580 473M458 475L458 479L459 479L458 475M661.333 478.667L661.667 479.333L661.333 478.667z"/>
<path style="fill:#f58801; stroke:none;" d="M1098 482L1099 483L1098 482z"/>
<path style="fill:#616060; stroke:none;" d="M579.333 483.667L579.667 484.333L579.333 483.667M459 484L460 485L459 484M662 484L663 485L662 484M778.333 485.667L778.667 486.333L778.333 485.667M460 489L461 490L460 489M578 489L579 490L578 489z"/>
<path style="fill:#f58801; stroke:none;" d="M91 490L92 491L91 490z"/>
<path style="fill:#616060; stroke:none;" d="M777 490L778 491L777 490M461 492L462 493L461 492M776 493L777 494L776 493M576 496L577 497L576 496M775 496L776 497L775 496M463 497L464 498L463 497M667 498L668 499L667 498M464 499L465 500L464 499M668 500L669 501L668 500M574 501L575 502L574 501M772 502L773 503L772 502M573 503L574 504L573 503M467 504L468 505L467 504M572 505L573 506L572 505M671 505L672 506L671 505M469 507L470 508L469 507z"/>
<path style="fill:#f58801; stroke:none;" d="M1132 507L1133 508L1132 507M74 508L75 509L74 508z"/>
<path style="fill:#616060; stroke:none;" d="M674 509L675 510L674 509M767 509L768 510L767 509M569 510L570 511L569 510M763 513L764 514L763 513M566 514L567 515L566 514M565 515L566 516L565 515M679 515L680 516L679 515M760 515L761 516L760 515M757 517L758 518L757 517z"/>
<path style="fill:#f58801; stroke:none;" d="M1147 518L1148 519L1147 518z"/>
<path style="fill:#616060; stroke:none;" d="M481 519L482 520L481 519M754 519L755 520L754 519M560 520L561 521L560 520M752 520L753 521L752 520M485 522L486 523L485 522M555 524L556 525L555 524M688 524L689 525L688 524M490 525L491 526L490 525z"/>
<path style="fill:#f58801; stroke:none;" d="M57 526L58 527L57 526z"/>
<path style="fill:#616060; stroke:none;" d="M691 526L692 527L691 526M740 526L741 527L740 526M550 527L551 528L550 527M548 528L549 529L548 528M695 528L696 529L695 528M735 528L736 529L735 528M697 529L698 530L697 529M732 529L733 530L732 529M500 530L501 531L500 530M700 530L701 531L700 530M728 530L729 531L728 530M502 531L503 532L502 531M703 531L704 532L703 531M724 531L725 532L724 531M505 532L506 533L505 532M710 532L710 533L718 533L710 532M534 533L535 534L534 533M511 534L512 535L511 534M529 534L530 535L529 534M514 535L515 536L514 535M521 535L521 536L524 536L521 535M1018 547L1019 548L1018 547M1023 549L1024 550L1023 549z"/>
<path style="fill:#f58801; stroke:none;" d="M1076 551L1077 552L1076 551z"/>
<path style="fill:#616060; stroke:none;" d="M1008 554L1009 555L1008 554M150 555L151 556L150 555M721 557L721 558L724 558L721 557M736 557L736 558L739 558L736 557M714 558L715 559L714 558M744.667 558.333L745.333 558.667L744.667 558.333M709 559L710 560L709 559M749 559L750 560L749 559z"/>
<path style="fill:#f58801; stroke:none;" d="M1076 559L1077 560L1076 559z"/>
<path style="fill:#616060; stroke:none;" d="M466 560L466 561L477 561L466 560M705 560L706 561L705 560M753 560L754 561L753 560M457 561L458 562L457 561M485.667 561.333L486.333 561.667L485.667 561.333M702 561L703 562L702 561M756 561L757 562L756 561M452 562L453 563L452 562M491 562L492 563L491 562M699 562L700 563L699 562M759 562L760 563L759 562z"/>
<path style="fill:#f58801; stroke:none;" d="M45 563L46 564L45 563z"/>
<path style="fill:#616060; stroke:none;" d="M447 563L448 564L447 563M495 563L496 564L495 563M762 563L763 564L762 563M444 564L445 565L444 564M499 564L500 565L499 564M694 564L695 565L694 564M764 564L765 565L764 564M991 564L992 565L991 564M210 565L211 566L210 565M502 565L503 566L502 565M723.667 565.333L724.333 565.667L723.667 565.333M739.667 565.333L740.333 565.667L739.667 565.333M438 566L439 567L438 566M505 566L506 567L505 566M689 566L690 567L689 566M716.667 566.333L717.333 566.667L716.667 566.333M746.667 566.333L747.333 566.667L746.667 566.333M435 567L436 568L435 567M687 567L688 568L687 567M712 567L713 568L712 567M751 567L752 568L751 567M771 567L772 568L771 567M203 568L204 569L203 568M510 568L511 569L510 568M685 568L686 569L685 568M708 568L709 569L708 568M755 568L756 569L755 568M705 569L706 570L705 569M758 569L759 570L758 569z"/>
<path style="fill:#f58801; stroke:none;" d="M1143 569L1144 570L1143 569z"/>
<path style="fill:#616060; stroke:none;" d="M428 570L429 571L428 570M162 571L163 572L162 571M426 571L427 572L426 571M763 571L764 572L763 571M778 571L779 572L778 571M424 572L425 573L424 572M678 572L679 573L678 572M695 573L696 574L695 573M454.667 574.333L455.333 574.667L454.667 574.333M479.667 574.333L480.333 574.667L479.667 574.333M693 574L694 575L693 574M1049 574L1050 575L1049 574M165 575L166 576L165 575M448 575L449 576L448 575M485 575L486 576L485 575M673 575L674 576L673 575M691 575L692 576L691 575M417 576L418 577L417 576M444 576L445 577L444 576M490 576L491 577L490 576M526 576L527 577L526 576M689 576L690 577L689 576M773 576L774 577L773 576M440 577L441 578L440 577M494 577L495 578L494 577M670 577L671 578L670 577M687 577L688 578L687 577M775 577L776 578L775 577M787 577L788 578L787 577z"/>
<path style="fill:#f58801; stroke:none;" d="M976 577L977 578L976 577z"/>
<path style="fill:#616060; stroke:none;" d="M437 578L438 579L437 578M497 578L498 579L497 578z"/>
<path style="fill:#f58801; stroke:none;" d="M1072 578L1073 579L1072 578z"/>
<path style="fill:#616060; stroke:none;" d="M434 579L435 580L434 579M500 579L501 580L500 579M531 579L532 580L531 579M778 579L779 580L778 579M431 580L432 581L431 580M503 580L504 581L503 580M666 580L667 581L666 580M682 580L683 581L682 580M791 580L792 581L791 580M534 581L535 582L534 581M426 582L427 583L426 582M424 583L425 584L424 583M510 583L511 584L510 583M662 583L663 584L662 583M784 583L785 584L784 583M405 584L406 585L405 584M512 584L513 585L512 584M796 584L797 585L796 584M514 585L515 586L514 585M797 585L798 586L797 585z"/>
<path style="fill:#f58801; stroke:none;" d="M1070 585L1071 586L1070 585z"/>
<path style="fill:#616060; stroke:none;" d="M418 586L419 587L418 586M516 586L517 587L516 586M541 586L542 587L541 586M673 586L674 587L673 586M788 586L789 587L788 586z"/>
<path style="fill:#f58801; stroke:none;" d="M142 587L143 588L142 587z"/>
<path style="fill:#616060; stroke:none;" d="M416 587L417 588L416 587M518 587L519 588L518 587M657 587L658 588L657 587M400 588L401 589L400 588M414 588L415 589L414 588M520 588L521 589L520 588z"/>
<path style="fill:#f58801; stroke:none;" d="M143 589L144 590L143 589z"/>
<path style="fill:#616060; stroke:none;" d="M669 589L670 590L669 589M546 590L547 591L546 590M409 591L410 592L409 591M525 591L526 592L525 591M794 591L795 592L794 591M795 592L796 593L795 592M394 593L395 594L394 593M406 593L407 594L406 593M528 593L529 594L528 593M664 593L665 594L664 593M393 594L394 595L393 594M649 594L650 595L649 594z"/>
<path style="fill:#f58801; stroke:none;" d="M963 594L964 595L963 594z"/>
<path style="fill:#616060; stroke:none;" d="M216 595L217 596L216 595M392 595L393 596L392 595M403 595L404 596L403 595M531 595L532 596L531 595M552 595L553 596L552 595M648 595L649 596L648 595M391 596L392 597L391 596M553 596L554 597L553 596M647 596L648 597L647 596M534 597L535 598L534 597M646 597L647 598L646 597M399 598L400 599L399 598M645 598L646 599L645 598M811 598L812 599L811 598M644 599L645 600L644 599M538 600L539 601L538 600M643 600L644 601L643 600M656 600L657 601L656 600M395 601L396 602L395 601M642 601L643 602L642 601M655 601L656 602L655 601M641 602L642 603L641 602M654 602L655 603L654 602M220 603L221 604L220 603M640 603L641 604L640 603M653 603L654 604L653 603M806 603L807 604L806 603M815 603L816 604L815 603M543 604L544 605L543 604M639 604L640 605L639 604M652 604L653 605L652 604M807 604L808 605L807 604M816 604L817 605L816 604z"/>
<path style="fill:#f58801; stroke:none;" d="M954 604L955 605L954 604z"/>
<path style="fill:#616060; stroke:none;" d="M189 605L190 606L189 605M390 605L391 606L390 605M638 605L639 606L638 605M651 605L652 606L651 605M817 605L818 606L817 605M381 606L382 607L381 606M389 606L390 607L389 606M650 606L651 607L650 606M380 607L381 608L380 607M649 607L650 608L649 607M379 608L380 609L379 608M648 608L649 609L648 608M378 609L379 610L378 609M549 609L550 610L549 609M647 609L648 610L647 609M820 609L821 610L820 609M377 610L378 611L377 610M550 610L551 611L550 610M646 610L647 611L646 610M812 610L813 611L812 610M821 610L822 611L821 610M645 611L646 612L645 611M861 611L862 612L861 611z"/>
<path style="fill:#f58801; stroke:none;" d="M269 612L270 613L269 612M156 613L157 614L156 613z"/>
<path style="fill:#616060; stroke:none;" d="M823 613L824 614L823 613M374 614L375 615L374 614M630 614L631 615L630 614M824 614L825 615L824 614M373 615L374 616L373 615M572 615L573 616L572 615M629 615L630 616L629 615M816 615L817 616L816 615z"/>
<path style="fill:#f58801; stroke:none;" d="M943 615L944 616L943 615z"/>
<path style="fill:#616060; stroke:none;" d="M573 616L574 617L573 616M574 617L575 618L574 617M826 617L827 618L826 617z"/>
<path style="fill:#f58801; stroke:none;" d="M274 618L275 619L274 618z"/>
<path style="fill:#616060; stroke:none;" d="M575 618L576 619L575 618M818 618L819 619L818 618M576 619L577 620L576 619M577 620L578 621L577 620M637 620L638 621L637 620M636 621L637 622L636 621M373 622L374 623L373 622M623 622L624 623L623 622M821 622L822 623L821 622M372 623L373 624L372 623M622 623L623 624L622 623M581 625L582 626L581 625M823 625L824 626L823 625M582 626L583 627L582 626M620 626L621 627L620 626M632 626L633 627L632 626M567 627L568 628L567 627M619 627L620 628L619 627M234 628L235 629L234 628z"/>
<path style="fill:#f58801; stroke:none;" d="M367 628L368 629L367 628z"/>
<path style="fill:#616060; stroke:none;" d="M568 628L569 629L568 628M618 628L619 629L618 628M569 629L570 630L569 629M585 630L586 631L585 630M586 631L587 632L586 631M616 631L617 632L616 631M628 631L629 632L628 631M615 632L616 633L615 632M574 635L575 636L574 635M589 635L590 636L589 635M613 635L614 636L613 635M625 635L626 636L625 635M575 636L576 637L575 636M590 636L591 637L590 636M612 636L613 637L612 636M624 636L625 637L624 636M215 637L216 638L215 637M242 642L243 643L242 642z"/>
<path style="fill:#f58801; stroke:none;" d="M648 643L649 644L648 643M702 645L703 646L702 645z"/>
<path style="fill:#616060; stroke:none;" d="M981 646L982 647L981 646z"/>
<path style="fill:#f58801; stroke:none;" d="M561 651L562 652L561 651M888 656L889 657L888 656M183 657L184 658L183 657z"/>
<path style="fill:#616060; stroke:none;" d="M992 657L993 658L992 657M234 660L235 661L234 660z"/>
<path style="fill:#f58801; stroke:none;" d="M749 664L750 665L749 664M1078 664L1079 665L1078 664M454 672L455 673L454 672z"/>
<path style="fill:#616060; stroke:none;" d="M982 672L983 673L982 672z"/>
<path style="fill:#f58801; stroke:none;" d="M856 673L857 674L856 673M347 680L348 681L347 680M359 685L360 686L359 685M483 691L484 692L483 691M218 709L219 710L218 709M1020 709L1021 710L1020 709M204 727L205 728L204 727M211 735L212 736L211 735M1025 741L1026 742L1025 741M219 744L220 745L219 744M1009 750L1010 751L1009 750z"/>
</svg>
