<?xml version="1.0" standalone="no"?>
<!DOCTYPE svg PUBLIC "-//W3C//DTD SVG 20010904//EN"
 "http://www.w3.org/TR/2001/REC-SVG-20010904/DTD/svg10.dtd">
<svg version="1.0" xmlns="http://www.w3.org/2000/svg"
 width="1200.000000pt" height="800.000000pt" viewBox="0 0 1200.000000 800.000000"
 preserveAspectRatio="xMidYMid meet">

<g transform="translate(0.000000,800.000000) scale(0.100000,-0.100000)"
fill="#000000" stroke="none">
<path d="M5655 4515 c-2546 -238 -4632 -433 -4634 -434 -19 -5 34 -97 169
-289 126 -181 159 -234 153 -249 -5 -11 -208 -231 -451 -488 -244 -258 -448
-480 -454 -494 -5 -14 -8 -51 -5 -83 7 -84 61 -178 177 -305 124 -138 585
-602 1085 -1094 215 -211 448 -448 518 -526 70 -78 137 -147 148 -154 21 -11
21 -10 14 27 -36 197 -211 527 -459 866 -138 188 -371 576 -491 815 -87 175
-125 278 -125 338 0 40 4 47 62 99 34 31 64 56 67 56 3 0 17 -25 30 -56 42
-98 204 -308 685 -893 142 -173 297 -368 346 -435 84 -117 130 -169 130 -150
0 5 -8 38 -19 74 -47 164 -142 369 -269 583 -110 184 -364 697 -346 697 2 0
22 -11 44 -25 53 -34 241 -128 357 -179 l91 -41 99 -131 c273 -366 554 -640
808 -789 99 -59 223 -111 285 -121 37 -6 50 -18 159 -148 562 -668 1076 -884
1504 -634 118 69 258 214 350 363 l37 59 -128 23 c-236 43 -438 113 -671 234
-152 79 -320 186 -436 280 l-79 64 49 7 c293 43 1136 118 1323 118 39 0 72 3
72 6 0 3 -18 29 -41 58 l-41 51 59 8 c67 9 388 5 398 -5 4 -3 -12 -32 -34 -62
-23 -31 -40 -56 -38 -56 3 0 22 7 43 16 99 41 230 58 464 58 273 0 451 -22
760 -95 165 -39 155 -34 132 -66 -126 -176 -382 -388 -604 -499 -232 -116
-495 -183 -733 -184 l-80 -1 65 -62 c156 -149 374 -255 600 -292 290 -46 600
24 913 209 200 117 470 342 651 542 86 94 92 99 200 149 486 224 932 580 1191
953 52 75 64 86 128 119 97 48 218 124 303 189 39 30 74 54 77 54 9 0 -77
-247 -139 -398 -73 -178 -126 -294 -233 -514 -49 -101 -110 -238 -135 -305
-41 -110 -96 -298 -96 -327 1 -17 33 28 107 149 37 61 161 245 276 410 279
400 561 824 599 899 17 34 32 63 34 65 9 10 86 -53 95 -77 43 -111 -175 -768
-426 -1287 -151 -314 -255 -650 -243 -789 l3 -39 41 59 c23 32 82 124 131 204
49 80 202 303 339 495 443 619 806 1153 883 1297 44 82 71 164 71 217 0 85 -9
93 -472 431 -560 409 -522 379 -537 433 l-13 45 163 239 c148 217 163 242 166
288 3 35 -1 61 -14 85 -31 60 -63 73 -269 109 -104 17 -228 39 -275 47 l-86
16 -26 54 c-15 30 -27 59 -27 65 0 6 41 109 91 228 50 119 95 226 100 239 8
21 6 22 -39 21 -26 -1 -2130 -196 -4677 -434z m-616 -554 c185 -95 226 -423
74 -592 -183 -203 -446 19 -402 339 6 42 20 96 32 120 57 123 194 184 296 133z
m2080 0 c174 -89 213 -411 68 -568 -47 -51 -79 -70 -134 -79 -60 -9 -135 27
-183 88 -56 71 -75 134 -75 253 0 88 4 107 27 158 31 66 73 121 115 148 39 26
131 26 182 0z m1651 -2035 c0 -7 -209 -156 -233 -167 -32 -14 -261 -67 -269
-62 -5 2 -8 31 -8 63 0 54 2 60 23 64 371 77 472 98 476 102 6 5 11 5 11 0z
m-5222 -78 l162 -31 0 -37 c0 -27 -10 -49 -36 -83 l-36 -46 -34 14 c-60 25
-147 88 -219 158 l-70 69 35 -6 c19 -4 108 -21 198 -38z"/>
</g>
</svg>
